<svg xmlns="http://www.w3.org/2000/svg" viewBox="0 0 800 600" preserveAspectRatio="xMidYMid slice"><defs><linearGradient id="sky" x1="0" y1="0" x2="0" y2="1"><stop offset="0" stop-color="#a6f0c6"/><stop offset="1" stop-color="#ecfdf3"/></linearGradient><linearGradient id="soil" x1="0" y1="0" x2="0" y2="1"><stop offset="0" stop-color="#8a5a36"/><stop offset="1" stop-color="#5b3a26"/></linearGradient></defs>
<rect width="800" height="600" fill="url(#sky)"/><circle cx="640" cy="120" r="60" fill="#ffb454"/><circle cx="640" cy="120" r="90" fill="#ffb454" opacity=".25"/>
<path d="M0 330 Q200 280 400 320 T800 300 V600 H0z" fill="#36c77f"/>
<path d="M0 380 H800 V600 H0z" fill="url(#soil)"/>
<g stroke="#4a2e1c" stroke-width="3" opacity=".4"><path d="M0 430 H800M0 490 H800M0 550 H800"/></g>
<g fill="#16a864"><path d="M80 430 q-20-40 0-60 q20 20 0 60z"/><path d="M80 430 q30-30 50-20 q-10 30-50 20z"/><path d="M200 430 q-20-40 0-60 q20 20 0 60z"/><path d="M200 430 q30-30 50-20 q-10 30-50 20z"/><path d="M660 430 q-20-40 0-60 q20 20 0 60z"/><path d="M660 430 q30-30 50-20 q-10 30-50 20z"/><path d="M130 490 q-20-40 0-60 q20 20 0 60z"/><path d="M620 490 q-20-40 0-60 q20 20 0 60z"/><path d="M720 550 q-20-40 0-60 q20 20 0 60z"/><path d="M60 550 q-20-40 0-60 q20 20 0 60z"/></g>
<circle cx="360" cy="250" r="36" fill="#b8764a"/><path d="M300 400 q0-110 60-110 t60 110z" fill="#0b8a51"/><path d="M400 330 l60 70" stroke="#0b8a51" stroke-width="20" stroke-linecap="round"/><path d="M455 330 v120" stroke="#6b4a2e" stroke-width="8"/><path d="M440 450 h30 l-6 30 h-18z" fill="#9aa5a0"/>
<circle cx="530" cy="270" r="32" fill="#f2c7a0"/><path d="M478 410 q0-100 52-100 t52 100z" fill="#f59e0b"/><path d="M500 340 l-40 50" stroke="#f59e0b" stroke-width="18" stroke-linecap="round"/><path d="M440 370 q20 20 40 0 v30 h-40z" fill="#0e9f8e"/>
<path d="M320 238 q40-30 80 0" fill="#f59e0b"/><rect x="315" y="232" width="90" height="10" rx="5" fill="#d97706"/>
</svg>
