<svg xmlns="http://www.w3.org/2000/svg" viewBox="0 0 800 600" preserveAspectRatio="xMidYMid slice"><defs><linearGradient id="bg" x1="0" y1="0" x2="1" y2="1"><stop offset="0" stop-color="#0b8a51"/><stop offset="1" stop-color="#0c5737"/></linearGradient><radialGradient id="gl" cx=".5" cy=".45" r=".5"><stop offset="0" stop-color="#fff" stop-opacity=".25"/><stop offset="1" stop-color="#fff" stop-opacity="0"/></radialGradient></defs>
<rect width="800" height="600" fill="url(#bg)"/><rect width="800" height="600" fill="url(#gl)"/>
<path d="M400 470 C250 370 200 290 250 220 c40-55 110-45 150 15 c40-60 110-70 150-15 c50 70 0 150-150 250z" fill="#ffb454"/>
<path d="M400 470 C250 370 200 290 250 220 c40-55 110-45 150 15" fill="none" stroke="#fff" stroke-opacity=".5" stroke-width="6"/>
<g stroke-linecap="round" stroke-width="54"><path d="M60 560 L300 360" stroke="#f2c7a0"/><path d="M740 560 L500 360" stroke="#7a4a2c"/><path d="M400 620 L400 400" stroke="#b8764a"/></g>
<g fill="#fff" opacity=".6"><circle cx="140" cy="130" r="5"/><circle cx="660" cy="150" r="7"/><circle cx="700" cy="330" r="4"/><circle cx="90" cy="320" r="6"/><circle cx="560" cy="70" r="4"/></g>
</svg>
